<?xml version="1.0" encoding="UTF-8" standalone="no"?>
<!-- Created with Inkscape (http://www.inkscape.org/) -->

<svg
   xmlns:dc="http://purl.org/dc/elements/1.1/"
   xmlns:cc="http://creativecommons.org/ns#"
   xmlns:rdf="http://www.w3.org/1999/02/22-rdf-syntax-ns#"
   xmlns:svg="http://www.w3.org/2000/svg"
   xmlns="http://www.w3.org/2000/svg"
   xmlns:sodipodi="http://sodipodi.sourceforge.net/DTD/sodipodi-0.dtd"
   xmlns:inkscape="http://www.inkscape.org/namespaces/inkscape"
   width="256"
   height="256"
   viewBox="0 0 256 256"
   id="svg2"
   version="1.1"
   inkscape:version="0.91 r13725"
   sodipodi:docname="flaresolverr_logo.svg"
   inkscape:export-filename="C:\Users\Diego\Desktop\flaresolverr_logo.png"
   inkscape:export-xdpi="90"
   inkscape:export-ydpi="90">
  <defs
     id="defs4" />
  <sodipodi:namedview
     id="base"
     pagecolor="#ffffff"
     bordercolor="#666666"
     borderopacity="1.0"
     inkscape:pageopacity="0.0"
     inkscape:pageshadow="2"
     inkscape:zoom="0.64"
     inkscape:cx="-88.263072"
     inkscape:cy="-93.571587"
     inkscape:document-units="px"
     inkscape:current-layer="layer1"
     showgrid="false"
     inkscape:window-width="2560"
     inkscape:window-height="1377"
     inkscape:window-x="-8"
     inkscape:window-y="-8"
     inkscape:window-maximized="1"
     units="px"
     showborder="true" />
  <metadata
     id="metadata7">
    <rdf:RDF>
      <cc:Work
         rdf:about="">
        <dc:format>image/svg+xml</dc:format>
        <dc:type
           rdf:resource="http://purl.org/dc/dcmitype/StillImage" />
        <dc:title></dc:title>
      </cc:Work>
    </rdf:RDF>
  </metadata>
  <g
     inkscape:label="Capa 1"
     inkscape:groupmode="layer"
     id="layer1"
     transform="translate(0,-796.36219)">
    <g
       id="g4177"
       transform="matrix(0.51436047,0,0,0.59495735,-334.60687,650.43877)">
      <g
         id="g4141" />
      <g
         id="g4143" />
      <g
         id="g4145" />
      <g
         id="g4147" />
      <g
         id="g4149" />
      <g
         id="g4151" />
      <g
         id="g4153" />
      <g
         id="g4155" />
      <g
         id="g4157" />
      <g
         id="g4159" />
      <g
         id="g4161" />
      <g
         id="g4163" />
      <g
         id="g4165" />
      <g
         id="g4167" />
      <g
         id="g4169" />
      <g
         id="g4263"
         transform="matrix(0.94954959,0,0,0.94954959,-111.49858,393.65111)">
        <g
           id="g4269" />
        <g
           id="g4342"
           transform="translate(736.24631,-345.97247)">
          <path
             style="fill:#9dc6fb"
             inkscape:connector-curvature="0"
             d="m 584.32729,454.42324 c -0.995,-51.995 -44.49,-93.257 -96.488,-91.376 -7.616,0.273 -14.792,-3.862 -18.446,-10.55 -22.605,-41.376 -66.519,-69.441 -116.989,-69.441 -51.757,0 -96.596,29.528 -118.647,72.648 -6.423,12.56 -19.224,10.9 -24.689,10.9 -40.126,0 -74.199,25.852 -86.512,61.804 -2.046,5.973 -6.938,10.463 -12.894,12.556 -22.389998,7.87 -38.250998,29.605 -37.275998,54.902 1.163,30.174 26.849,53.631 57.044998,53.631 l 359.817,0 c 52.291,0 96.08,-42.793 95.079,-95.074 z"
             id="path4285" />
          <path
             style="fill:#80b4fb"
             inkscape:connector-curvature="0"
             d="m 190.59629,495.86724 c -0.975,-25.298 14.885,-47.033 37.276,-54.902 5.956,-2.094 10.848,-6.584 12.894,-12.556 12.313,-35.952 46.385,-61.804 86.512,-61.804 5.465,0 18.265,1.66 24.688,-10.9 13.005,-25.43 33.94,-46.125 59.541,-58.832 -17.812,-8.834 -37.873,-13.816 -59.103,-13.816 -51.757,0 -96.596,29.528 -118.647,72.648 -6.423,12.56 -19.224,10.9 -24.689,10.9 -40.126,0 -74.199,25.852 -86.512,61.804 -2.046,5.973 -6.938,10.463 -12.894,12.556 -22.389998,7.87 -38.250998,29.605 -37.275998,54.902 1.163,30.174 26.849,53.63 57.044998,53.63 l 118.21,0 c -30.196,0 -55.881,-23.457 -57.045,-53.63 z"
             id="path4287" />
        </g>
      </g>
    </g>
    <g
       id="g4241"
       transform="matrix(0.1453379,0,0,0.1453379,47.012211,854.83732)"
       style="fill:#4d4d4d">
      <g
         id="g4197"
         style="fill:#4d4d4d;fill-opacity:1">
        <path
           id="path4201"
           d="m 867.699,356.238 -31.5,-26.6 c -9.699,-8.2 -24,-7.8 -33.199,0.9 l -17.4,16.3 c -14.699,-7.1 -30.299,-12.1 -46.4,-15 l -4.898,-24 c -2.5,-12.4 -14,-21 -26.602,-20 l -41.1,3.5 c -12.6,1.1 -22.5,11.4 -22.9,24.1 l -0.799,24.4 c -15.801,5.7 -30.701,13.5 -44.301,23.3 l -20.799,-13.8 c -10.602,-7 -24.701,-5 -32.9,4.7 l -26.6,31.7 c -8.201,9.7 -7.801,24 0.898,33.2 l 18.201,19.399 c -6.301,14.2 -10.801,29.101 -13.4,44.4 l -26,5.3 c -12.4,2.5 -21,14 -20,26.601 l 3.5,41.1 c 1.1,12.6 11.4,22.5 24.1,22.9 l 28.1,0.899 c 5.102,13.4 11.801,26.101 19.9,38 l -15.699,23.7 c -7,10.6 -5,24.7 4.699,32.9 l 31.5,26.6 c 9.701,8.2 24,7.8 33.201,-0.9 l 20.6,-19.3 c 13.5,6.3 27.699,11 42.299,13.8 l 5.701,28.2 c 2.5,12.4 14,21 26.6,20 l 41.1,-3.5 c 12.6,-1.1 22.5,-11.399 22.9,-24.1 l 0.9,-27.601 c 15,-5.3 29.199,-12.5 42.299,-21.399 l 22.701,15 c 10.6,7 24.699,5 32.9,-4.7 l 26.6,-31.5 c 8.199,-9.7 7.799,-24 -0.9,-33.2 L 872.7,592.138 c 6.701,-14.2 11.602,-29.2 14.4,-44.601 l 25,-5.1 c 12.4,-2.5 21,-14 20,-26.601 l -3.5,-41.1 c -1.1,-12.6 -11.4,-22.5 -24.1,-22.9 l -25.1,-0.8 c -5.201,-14.6 -12.201,-28.399 -20.9,-41.2 l 13.699,-20.6 c 7.201,-10.598 5.201,-24.798 -4.5,-32.998 z M 712.801,593.837 c -44.4,3.801 -83.602,-29.3 -87.301,-73.699 -3.801,-44.4 29.301,-83.601 73.699,-87.301 44.4,-3.8 83.602,29.301 87.301,73.7 3.801,44.401 -29.301,83.601 -73.699,87.3 z"
           inkscape:connector-curvature="0"
           style="fill:#4d4d4d;fill-opacity:1" />
        <path
           id="path4203"
           d="m 205,704.438 c -12.6,1.3 -22.3,11.899 -22.4,24.6 l -0.3,25.3 c -0.2,12.7 9.2,23.5 21.8,25.101 l 18.6,2.399 c 3.1,11.301 7.5,22.101 13.2,32.301 l -12,14.8 c -8,9.899 -7.4,24.1 1.5,33.2 l 17.7,18.1 c 8.9,9.1 23.1,10.1 33.2,2.3 l 14.899,-11.5 c 10.5,6.2 21.601,11.101 33.2,14.5 l 2,19.2 c 1.3,12.6 11.9,22.3 24.6,22.4 l 25.301,0.3 c 12.699,0.2 23.5,-9.2 25.1,-21.8 l 2.3,-18.2 c 12.601,-3.101 24.601,-7.8 36,-14 l 14,11.3 c 9.9,8 24.101,7.4 33.201,-1.5 l 18.1,-17.7 c 9.1,-8.899 10.1,-23.1 2.301,-33.2 L 496.6,818.438 c 6.6,-11 11.701,-22.7 15.201,-35 l 16.6,-1.7 c 12.6,-1.3 22.299,-11.9 22.4,-24.6 l 0.299,-25.301 c 0.201,-12.699 -9.199,-23.5 -21.799,-25.1 l -16.201,-2.1 c -3.1,-12.2 -7.699,-24 -13.699,-35 l 10.1,-12.4 c 8,-9.9 7.4,-24.1 -1.5,-33.2 l -17.699,-18.1 c -8.9,-9.101 -23.102,-10.101 -33.201,-2.3 l -12.101,9.3 c -11.399,-6.9 -23.6,-12.2 -36.399,-15.8 L 407,581.437 c -1.3,-12.601 -11.899,-22.3 -24.6,-22.4 l -25.3,-0.3 c -12.7,-0.2 -23.5,9.2 -25.101,21.8 l -2,15.601 c -13.199,3.399 -25.899,8.6 -37.699,15.399 l -12.5,-10.2 c -9.9,-8 -24.101,-7.399 -33.201,1.5 l -18.2,17.801 c -9.1,8.899 -10.1,23.1 -2.3,33.199 l 10.7,13.801 c -6.2,11 -11.1,22.699 -14.3,35 l -17.499,1.8 z m 163.3,-28.601 c 36.3,0.4 65.399,30.301 65,66.601 -0.4,36.3 -30.301,65.399 -66.601,65 -36.3,-0.4 -65.399,-30.3 -65,-66.601 0.401,-36.299 30.301,-65.399 66.601,-65 z"
           inkscape:connector-curvature="0"
           style="fill:#4d4d4d;fill-opacity:1" />
      </g>
      <g
         id="g4205"
         style="fill:#4d4d4d" />
      <g
         id="g4207"
         style="fill:#4d4d4d" />
      <g
         id="g4209"
         style="fill:#4d4d4d" />
      <g
         id="g4211"
         style="fill:#4d4d4d" />
      <g
         id="g4213"
         style="fill:#4d4d4d" />
      <g
         id="g4215"
         style="fill:#4d4d4d" />
      <g
         id="g4217"
         style="fill:#4d4d4d" />
      <g
         id="g4219"
         style="fill:#4d4d4d" />
      <g
         id="g4221"
         style="fill:#4d4d4d" />
      <g
         id="g4223"
         style="fill:#4d4d4d" />
      <g
         id="g4225"
         style="fill:#4d4d4d" />
      <g
         id="g4227"
         style="fill:#4d4d4d" />
      <g
         id="g4229"
         style="fill:#4d4d4d" />
      <g
         id="g4231"
         style="fill:#4d4d4d" />
      <g
         id="g4233"
         style="fill:#4d4d4d" />
    </g>
  </g>
</svg>
